<svg width="382" height="11" viewBox="0 0 382 11" fill="none" xmlns="http://www.w3.org/2000/svg">
<path d="M0.76 2.744C0.76 1.976 1.012 1.34 1.516 0.835999C2.02 0.331999 2.656 0.079999 3.424 0.079999H25.168C25.936 0.079999 26.572 0.331999 27.076 0.835999C27.58 1.34 27.832 1.976 27.832 2.744V8.216C27.832 8.984 27.58 9.62 27.076 10.124C26.572 10.628 25.936 10.88 25.168 10.88H3.424C2.656 10.88 2.02 10.628 1.516 10.124C1.012 9.62 0.76 8.984 0.76 8.216V2.744ZM21.3616 2.744C21.3616 1.976 21.6136 1.34 22.1176 0.835999C22.6216 0.331999 23.2576 0.079999 24.0256 0.079999H45.7696C46.5376 0.079999 47.1736 0.331999 47.6776 0.835999C48.1816 1.34 48.4336 1.976 48.4336 2.744V8.216C48.4336 8.984 48.1816 9.62 47.6776 10.124C47.1736 10.628 46.5376 10.88 45.7696 10.88H24.0256C23.2576 10.88 22.6216 10.628 22.1176 10.124C21.6136 9.62 21.3616 8.984 21.3616 8.216V2.744ZM41.9631 2.744C41.9631 1.976 42.2151 1.34 42.7191 0.835999C43.2231 0.331999 43.8591 0.079999 44.6271 0.079999H66.3711C67.1391 0.079999 67.7751 0.331999 68.2791 0.835999C68.7831 1.34 69.0351 1.976 69.0351 2.744V8.216C69.0351 8.984 68.7831 9.62 68.2791 10.124C67.7751 10.628 67.1391 10.88 66.3711 10.88H44.6271C43.8591 10.88 43.2231 10.628 42.7191 10.124C42.2151 9.62 41.9631 8.984 41.9631 8.216V2.744ZM62.5647 2.78C62.5647 2.012 62.8167 1.376 63.3207 0.872C63.8247 0.368 64.4607 0.116 65.2287 0.116H76.6767C77.4447 0.116 78.0807 0.368 78.5847 0.872C79.0887 1.376 79.3407 2.012 79.3407 2.78V8.216C79.3407 8.984 79.0887 9.62 78.5847 10.124C78.0807 10.628 77.4447 10.88 76.6767 10.88H65.2287C64.4607 10.88 63.8247 10.628 63.3207 10.124C62.8167 9.62 62.5647 8.984 62.5647 8.216V2.78ZM72.8655 2.744C72.8655 1.976 73.1175 1.34 73.6215 0.835999C74.1255 0.331999 74.7615 0.079999 75.5295 0.079999H97.2735C98.0415 0.079999 98.6775 0.331999 99.1815 0.835999C99.6855 1.34 99.9375 1.976 99.9375 2.744V8.216C99.9375 8.984 99.6855 9.62 99.1815 10.124C98.6775 10.628 98.0415 10.88 97.2735 10.88H75.5295C74.7615 10.88 74.1255 10.628 73.6215 10.124C73.1175 9.62 72.8655 8.984 72.8655 8.216V2.744ZM93.467 2.744C93.467 1.976 93.719 1.34 94.223 0.835999C94.727 0.331999 95.363 0.079999 96.131 0.079999H117.875C118.643 0.079999 119.279 0.331999 119.783 0.835999C120.287 1.34 120.539 1.976 120.539 2.744V8.216C120.539 8.984 120.287 9.62 119.783 10.124C119.279 10.628 118.643 10.88 117.875 10.88H96.131C95.363 10.88 94.727 10.628 94.223 10.124C93.719 9.62 93.467 8.984 93.467 8.216V2.744ZM135.655 2.744C135.655 1.976 135.907 1.34 136.411 0.835999C136.915 0.331999 137.551 0.079999 138.319 0.079999H160.063C160.831 0.079999 161.467 0.331999 161.971 0.835999C162.475 1.34 162.727 1.976 162.727 2.744V8.216C162.727 8.984 162.475 9.62 161.971 10.124C161.467 10.628 160.831 10.88 160.063 10.88H138.319C137.551 10.88 136.915 10.628 136.411 10.124C135.907 9.62 135.655 8.984 135.655 8.216V2.744ZM177.842 2.744C177.842 1.976 178.094 1.34 178.598 0.835999C179.102 0.331999 179.738 0.079999 180.506 0.079999H202.25C203.018 0.079999 203.654 0.331999 204.158 0.835999C204.662 1.34 204.914 1.976 204.914 2.744V8.216C204.914 8.984 204.662 9.62 204.158 10.124C203.654 10.628 203.018 10.88 202.25 10.88H180.506C179.738 10.88 179.102 10.628 178.598 10.124C178.094 9.62 177.842 8.984 177.842 8.216V2.744ZM198.444 2.744C198.444 1.976 198.696 1.34 199.2 0.835999C199.704 0.331999 200.34 0.079999 201.108 0.079999H222.852C223.62 0.079999 224.256 0.331999 224.76 0.835999C225.264 1.34 225.516 1.976 225.516 2.744V8.216C225.516 8.984 225.264 9.62 224.76 10.124C224.256 10.628 223.62 10.88 222.852 10.88H201.108C200.34 10.88 199.704 10.628 199.2 10.124C198.696 9.62 198.444 8.984 198.444 8.216V2.744ZM219.045 2.78C219.045 2.012 219.297 1.376 219.801 0.872C220.305 0.368 220.941 0.116 221.709 0.116H233.157C233.925 0.116 234.561 0.368 235.065 0.872C235.569 1.376 235.821 2.012 235.821 2.78V8.216C235.821 8.984 235.569 9.62 235.065 10.124C234.561 10.628 233.925 10.88 233.157 10.88H221.709C220.941 10.88 220.305 10.628 219.801 10.124C219.297 9.62 219.045 8.984 219.045 8.216V2.78ZM229.346 2.744C229.346 1.976 229.598 1.34 230.102 0.835999C230.606 0.331999 231.242 0.079999 232.01 0.079999H253.754C254.522 0.079999 255.158 0.331999 255.662 0.835999C256.166 1.34 256.418 1.976 256.418 2.744V8.216C256.418 8.984 256.166 9.62 255.662 10.124C255.158 10.628 254.522 10.88 253.754 10.88H232.01C231.242 10.88 230.606 10.628 230.102 10.124C229.598 9.62 229.346 8.984 229.346 8.216V2.744ZM271.533 2.78C271.533 2.012 271.785 1.376 272.289 0.872C272.793 0.368 273.429 0.116 274.197 0.116H285.645C286.413 0.116 287.049 0.368 287.553 0.872C288.057 1.376 288.309 2.012 288.309 2.78V8.216C288.309 8.984 288.057 9.62 287.553 10.124C287.049 10.628 286.413 10.88 285.645 10.88H274.197C273.429 10.88 272.793 10.628 272.289 10.124C271.785 9.62 271.533 8.984 271.533 8.216V2.78ZM281.834 2.744C281.834 1.976 282.086 1.34 282.59 0.835999C283.094 0.331999 283.73 0.079999 284.498 0.079999H306.242C307.01 0.079999 307.646 0.331999 308.15 0.835999C308.654 1.34 308.906 1.976 308.906 2.744V8.216C308.906 8.984 308.654 9.62 308.15 10.124C307.646 10.628 307.01 10.88 306.242 10.88H284.498C283.73 10.88 283.094 10.628 282.59 10.124C282.086 9.62 281.834 8.984 281.834 8.216V2.744ZM302.436 2.744C302.436 1.976 302.688 1.34 303.192 0.835999C303.696 0.331999 304.332 0.079999 305.1 0.079999H326.844C327.612 0.079999 328.248 0.331999 328.752 0.835999C329.256 1.34 329.508 1.976 329.508 2.744V8.216C329.508 8.984 329.256 9.62 328.752 10.124C328.248 10.628 327.612 10.88 326.844 10.88H305.1C304.332 10.88 303.696 10.628 303.192 10.124C302.688 9.62 302.436 8.984 302.436 8.216V2.744ZM323.037 2.744C323.037 1.976 323.289 1.34 323.793 0.835999C324.297 0.331999 324.933 0.079999 325.701 0.079999H347.445C348.213 0.079999 348.849 0.331999 349.353 0.835999C349.857 1.34 350.109 1.976 350.109 2.744V8.216C350.109 8.984 349.857 9.62 349.353 10.124C348.849 10.628 348.213 10.88 347.445 10.88H325.701C324.933 10.88 324.297 10.628 323.793 10.124C323.289 9.62 323.037 8.984 323.037 8.216V2.744ZM343.639 2.744C343.639 1.976 343.891 1.34 344.395 0.835999C344.899 0.331999 345.535 0.079999 346.303 0.079999H368.047C368.815 0.079999 369.451 0.331999 369.955 0.835999C370.459 1.34 370.711 1.976 370.711 2.744V8.216C370.711 8.984 370.459 9.62 369.955 10.124C369.451 10.628 368.815 10.88 368.047 10.88H346.303C345.535 10.88 344.899 10.628 344.395 10.124C343.891 9.62 343.639 8.984 343.639 8.216V2.744ZM364.24 2.78C364.24 2.012 364.492 1.376 364.996 0.872C365.5 0.368 366.136 0.116 366.904 0.116H378.352C379.12 0.116 379.756 0.368 380.26 0.872C380.764 1.376 381.016 2.012 381.016 2.78V8.216C381.016 8.984 380.764 9.62 380.26 10.124C379.756 10.628 379.12 10.88 378.352 10.88H366.904C366.136 10.88 365.5 10.628 364.996 10.124C364.492 9.62 364.24 8.984 364.24 8.216V2.78Z" fill="white"/>
</svg>
