<svg width="80" height="80" viewBox="0 0 80 80" fill="none" xmlns="http://www.w3.org/2000/svg">
<path d="M38.5247 0.000696872C37.3697 -0.021285 36.5277 0.478803 35.9971 1.21336C20.9396 0.87814 6.96366 14.2092 2.07125 28.143C-3.19614 43.1511 1.92002 60.8044 13.5965 71.0507C26.8623 82.6947 47.9486 82.3741 62.6285 73.5658C76.3321 65.3455 82.4626 48.0265 79.0922 32.293C74.9816 13.1019 56.9924 0.339584 38.5247 0.000696872ZM64.0082 66.0407C52.7013 75.7118 32.5896 77.8055 20.0817 69.6338C8.99332 62.3843 2.52406 47.6867 5.03748 34.2823C6.52678 26.3551 10.7559 19.386 16.3762 13.8795C21.8602 8.50952 28.3419 5.59325 35.3232 3.15418C35.2003 4.98142 36.2659 6.914 38.5247 6.8911C52.5351 6.73814 66.679 14.8934 72.3921 28.4691C77.6639 40.9978 74.2467 57.2845 64.0082 66.0407Z" fill="#18191B"/>
<path d="M19.0627 48.8722C19.1581 48.7794 19.2494 48.6857 19.3444 48.5925C20.2587 50.0582 21.2463 51.4815 22.2446 52.8884C23.7391 54.991 25.1303 57.4222 26.88 59.3187C28.4497 61.0203 30.0774 59.9773 31.5872 58.8241C32.611 58.0425 33.6431 57.2653 34.6516 56.4631C35.0601 56.1372 35.4601 55.8192 35.7512 55.4321C40.6883 55.1822 45.4235 53.528 50.3766 53.3854C51.5404 53.3512 52.0304 51.784 51.3619 50.9622C44.6583 42.7189 37.7422 34.6308 31.3806 26.1149C30.8418 25.3968 29.6277 25.5623 29.3175 26.411C27.6619 30.9241 25.9095 35.3896 24.6603 40.0279C24.1064 39.8968 23.4999 40.0066 22.8168 40.5227C20.6905 42.1257 18.7968 44.2056 16.7964 45.9722C15.0057 47.5533 17.3961 50.5073 19.0627 48.8722ZM30.6902 29.327C35.8686 36.6645 41.7498 43.4393 47.2408 50.5359C43.2137 50.91 35.0487 51.8457 34.9796 51.8509C34.1257 50.7232 33.2621 49.6023 32.3871 48.491C30.7508 46.4104 29.0718 44.3611 27.3613 42.3406C26.9257 41.8247 26.4754 41.2622 25.9893 40.8142C27.3574 36.9136 29.0597 33.1281 30.6902 29.327ZM24.2812 43.7345C25.1497 44.6322 31.9661 53.5353 32.5192 54.0215C31.8808 54.347 28.7874 56.9981 28.7501 57.0232C28.5153 56.7572 26.0401 53.927 25.0397 52.7756C23.515 51.0173 22.0032 49.2347 20.3894 47.5555C20.9838 46.9658 24.0104 43.9901 24.2812 43.7345Z" fill="#18191B"/>
<path d="M49.0032 43.0704C47.5493 45.4517 51.0008 47.4413 52.3754 44.9515C55.3875 39.497 55.0986 32.4707 50.06 28.3553C47.8501 26.5516 45.0179 25.6761 42.1783 25.8628C40.9672 25.9421 37.176 26.2543 36.7822 27.7722C36.7132 28.0372 36.7576 28.2631 36.9729 28.4441C37.8663 29.204 40.1419 28.3066 41.2022 28.2674C43.5016 28.1819 45.7794 28.7359 47.587 30.2049C51.5453 33.4201 51.5141 38.9537 49.0032 43.0704Z" fill="#A3A8B2"/>
<path d="M39.6911 16.6786C37.9625 16.9341 36.2623 17.388 34.6081 17.944C33.3484 18.3665 31.8527 18.7642 30.8958 19.7277C30.5697 20.0562 30.6368 20.6921 31.1797 20.7485C33.3278 20.9727 35.7685 19.6614 37.8931 19.2942C40.9071 18.7729 44.0773 18.7738 47.0083 19.7265C55.1474 22.3718 60.4796 30.6226 59.7369 39.0694C59.4086 42.7986 58.2459 46.6085 56.2067 49.7678C54.8504 51.8704 58.0254 54.2189 59.3339 52.09C63.656 45.0584 65.112 35.1908 60.9606 27.7601C56.75 20.225 48.3371 15.4031 39.6911 16.6786Z" fill="#81A0DE"/>
</svg>
