<svg width="110" height="110" viewBox="0 0 110 110" fill="none" xmlns="http://www.w3.org/2000/svg">
<path d="M52.9714 0.000958198C51.3833 -0.0292669 50.2256 0.658354 49.496 1.66837C28.7919 1.20744 9.57504 19.5377 2.84797 38.6966C-4.39469 59.3328 2.64003 83.606 18.6952 97.6947C36.9357 113.705 65.9294 113.264 86.1142 101.153C104.957 89.85 113.386 66.0365 108.752 44.4029C103.1 18.0151 78.3645 0.466928 52.9714 0.000958198ZM88.0112 90.8059C72.4643 104.104 44.8107 106.983 27.6124 95.7464C12.3658 85.7785 3.47058 65.5692 6.92653 47.1382C8.97432 36.2383 14.7894 26.6557 22.5172 19.0843C30.0578 11.7006 38.9701 7.69072 48.5694 4.337C48.4004 6.84946 49.8657 9.50674 52.9714 9.47526C72.2357 9.26494 91.6836 20.4784 99.5392 39.1449C106.788 56.372 102.089 78.7662 88.0112 90.8059Z" fill="#FFFAFF"/>
<path d="M26.2113 67.1993C26.3424 67.0717 26.4679 66.9429 26.5986 66.8148C27.8558 68.8301 29.2136 70.7872 30.5863 72.7216C32.6413 75.6127 34.5541 78.9556 36.96 81.5633C39.1183 83.9029 41.3564 82.4688 43.4324 80.8832C44.8402 79.8085 46.2592 78.7398 47.6459 77.6369C48.2077 77.1886 48.7577 76.7515 49.1579 76.2192C55.9464 75.8756 62.4573 73.601 69.2679 73.4049C70.8681 73.358 71.5418 71.2031 70.6226 70.073C61.4051 58.7385 51.8955 47.6174 43.1483 35.9081C42.4075 34.9206 40.7381 35.1482 40.3116 36.3152C38.0351 42.5207 35.6256 48.6608 33.9079 55.0384C33.1464 54.8582 32.3123 55.0091 31.3731 55.7187C28.4495 57.9229 25.8456 60.7827 23.095 63.2118C20.6328 65.3859 23.9197 69.4476 26.2113 67.1993ZM42.199 40.3247C49.3193 50.4138 57.4059 59.7291 64.9561 69.487C59.4188 70.0014 48.1919 71.2878 48.097 71.295C46.9228 69.7444 45.7354 68.2032 44.5323 66.6752C42.2823 63.8144 39.9738 60.9966 37.6217 58.2184C37.0229 57.5091 36.4037 56.7356 35.7353 56.1196C37.6164 50.7563 39.957 45.5513 42.199 40.3247ZM33.3866 60.135C34.5808 61.3694 43.9534 73.6111 44.714 74.2797C43.8362 74.7272 39.5826 78.3725 39.5314 78.4069C39.2085 78.0413 35.8051 74.1497 34.4295 72.5665C32.3331 70.1488 30.2544 67.6978 28.0354 65.3889C28.8528 64.5781 33.0143 60.4864 33.3866 60.135Z" fill="#FFFAFF"/>
<path d="M67.3794 59.2218C65.3803 62.496 70.1262 65.2317 72.0161 61.8083C76.1578 54.3084 75.7606 44.6472 68.8325 38.9885C65.7939 36.5085 61.8996 35.3046 57.9952 35.5614C56.3299 35.6703 51.117 36.0997 50.5755 38.1867C50.4806 38.5512 50.5418 38.8617 50.8377 39.1107C52.0662 40.1554 55.1951 38.9216 56.6531 38.8676C59.8147 38.7501 62.9467 39.5119 65.4321 41.5317C70.8748 45.9527 70.8319 53.5614 67.3794 59.2218Z" fill="#A3A8B2"/>
<path d="M54.5753 22.9331C52.1984 23.2844 49.8607 23.9085 47.5861 24.673C45.854 25.2539 43.7974 25.8007 42.4817 27.1255C42.0334 27.5773 42.1256 28.4516 42.872 28.5292C45.8257 28.8375 49.1817 27.0344 52.103 26.5295C56.2472 25.8128 60.6063 25.814 64.6365 27.1239C75.8277 30.7612 83.1595 42.106 82.1383 53.7204C81.6869 58.8481 80.0881 64.0867 77.2842 68.4308C75.4194 71.3218 79.7849 74.551 81.5842 71.6237C87.5271 61.9553 89.5289 48.3873 83.8209 38.1702C78.0312 27.8094 66.4635 21.1793 54.5753 22.9331Z" fill="#81A0DE"/>
</svg>
